<svg width="256" height="256" viewBox="0 0 256 256" fill="none" xmlns="http://www.w3.org/2000/svg">
<rect width="256" height="256" rx="60" fill="#101010"/>
<rect width="256" height="256" rx="60" fill="#101010"/>
<path d="M38.8424 141.503H55.2065C54.1668 136.893 53.6161 132.092 53.6161 127.162C53.6161 91.6925 82.0415 62.9404 117.108 62.9404C152.174 62.9404 180.599 91.6925 180.599 127.162C180.599 127.233 180.599 127.299 180.599 127.37H180.608C180.719 137.72 189.044 146.075 199.302 146.075C209.559 146.075 218 137.608 218 127.162C218 126.592 217.971 126.035 217.922 125.478C216.073 76.853 176.527 38 127.998 38C79.4689 38 38 78.7568 38 129.032C38 133.264 38.2918 137.425 38.8424 141.503Z" fill="url(#paint0_radial_6_15)"/>
<path d="M217.158 114.497L200.794 114.497C201.833 119.107 202.384 123.908 202.384 128.838C202.384 164.307 173.959 193.06 138.892 193.06C103.826 193.06 75.4005 164.307 75.4005 128.838C75.4005 128.767 75.4005 128.701 75.4005 128.63L75.3923 128.63C75.2814 118.28 66.9555 109.925 56.6982 109.925C46.4409 109.925 38 118.392 38 128.838C38 129.408 38.0288 129.965 38.0781 130.522C39.9274 179.147 79.4731 218 128.002 218C176.531 218 218 177.243 218 126.968C218 122.736 217.708 118.575 217.158 114.497Z" fill="url(#paint1_radial_6_15)"/>
<path fill-rule="evenodd" clip-rule="evenodd" d="M38.1136 124.483C40.1952 115.058 46.0819 109.925 55.7736 109.925C55.8253 109.925 55.877 109.925 55.9287 109.925C63.3745 82.8271 87.9445 62.9404 117.108 62.9404C152.174 62.9404 180.599 91.6925 180.599 127.162V127.37H180.608C180.719 137.72 189.044 146.075 199.302 146.075C209.559 146.075 218 137.608 218 127.162C218 126.592 217.971 126.035 217.922 125.478C216.073 76.853 176.527 38 127.998 38C80.9414 38 40.523 76.321 38.1136 124.483Z" fill="url(#paint2_radial_6_15)"/>
<defs>
<radialGradient id="paint0_radial_6_15" cx="0" cy="0" r="1" gradientUnits="userSpaceOnUse" gradientTransform="translate(17.2642 133.9) rotate(-12.2927) scale(197.065 199.123)">
<stop offset="0.322917" stop-color="#101010"/>
<stop offset="0.99" stop-color="#8454E0"/>
</radialGradient>
<radialGradient id="paint1_radial_6_15" cx="0" cy="0" r="1" gradientUnits="userSpaceOnUse" gradientTransform="translate(238.736 122.1) rotate(167.707) scale(197.065 199.123)">
<stop offset="0.322917" stop-color="#101010"/>
<stop offset="0.99" stop-color="#8454E0"/>
</radialGradient>
<radialGradient id="paint2_radial_6_15" cx="0" cy="0" r="1" gradientUnits="userSpaceOnUse" gradientTransform="translate(17.3908 133.9) rotate(-12.3002) scale(196.946 199.117)">
<stop offset="0.322917" stop-color="#101010"/>
<stop offset="0.99" stop-color="#8454E0"/>
</radialGradient>
</defs>
</svg>
