<svg width="1452" height="310" viewBox="0 0 1452 310" fill="none" xmlns="http://www.w3.org/2000/svg">
<mask id="mask0_606_178" style="mask-type:luminance" maskUnits="userSpaceOnUse" x="0" y="0" width="360" height="310">
<path d="M359.866 0H0V309.886H359.866V0Z" fill="white"/>
</mask>
<g mask="url(#mask0_606_178)">
<path d="M31.4151 182.618H59.0256C57.2714 174.929 56.3422 166.922 56.3422 158.7C56.3422 99.5444 104.304 51.5917 163.47 51.5917C222.636 51.5917 270.598 99.5444 270.598 158.7C270.598 158.818 270.598 158.929 270.598 159.047H270.611C270.799 176.309 284.847 190.243 302.153 190.243C319.461 190.243 333.703 176.121 333.703 158.7C333.703 157.75 333.654 156.821 333.571 155.893C330.451 74.7951 263.727 9.99634 181.845 9.99634C99.963 9.99634 29.9936 77.9703 29.9936 161.82C29.9936 168.877 30.4859 175.816 31.4151 182.618Z" fill="url(#paint0_linear_606_178)"/>
<path d="M332.279 137.578H304.668C306.423 145.266 307.351 153.273 307.351 161.495C307.351 220.651 259.39 268.604 200.224 268.604C141.057 268.604 93.096 220.651 93.096 161.495C93.096 161.377 93.096 161.266 93.096 161.148H93.0822C92.895 143.886 78.847 129.952 61.5401 129.952C44.2333 129.952 29.9911 144.073 29.9911 161.495C29.9911 162.445 30.0397 163.374 30.1229 164.303C33.2431 245.4 99.9673 310.199 181.849 310.199C263.73 310.199 333.7 242.225 333.7 158.375C333.7 151.318 333.208 144.378 332.279 137.578Z" fill="url(#paint1_linear_606_178)"/>
<path d="M270.47 158.7C270.47 158.818 270.47 158.929 270.47 159.047H270.484C270.671 176.308 284.719 190.243 302.027 190.243C319.333 190.243 333.575 176.121 333.575 158.7C333.575 157.75 333.527 156.821 333.444 155.892C332.951 143.067 330.864 130.65 327.383 118.838H262.808C267.753 131.157 270.47 144.613 270.47 158.7Z" fill="url(#paint2_linear_606_178)"/>
</g>
<path d="M463.562 231.38V54.7562H495.558V204.559H573.348V231.38H463.562Z" fill="#151515"/>
<path d="M652.663 233.967C639.726 233.967 628.515 231.121 619.028 225.429C609.542 219.737 602.183 211.774 596.951 201.54C591.776 191.306 589.189 179.347 589.189 165.663C589.189 151.98 591.776 139.992 596.951 129.701C602.183 119.409 609.542 111.417 619.028 105.725C628.515 100.033 639.726 97.1873 652.663 97.1873C665.599 97.1873 676.81 100.033 686.297 105.725C695.783 111.417 703.114 119.409 708.288 129.701C713.52 139.992 716.136 151.98 716.136 165.663C716.136 179.347 713.52 191.306 708.288 201.54C703.114 211.774 695.783 219.737 686.297 225.429C676.81 231.121 665.599 233.967 652.663 233.967ZM652.835 208.957C659.849 208.957 665.714 207.031 670.428 203.179C675.143 199.269 678.65 194.037 680.95 187.483C683.307 180.928 684.486 173.626 684.486 165.577C684.486 157.47 683.307 150.14 680.95 143.585C678.65 136.974 675.143 131.713 670.428 127.803C665.714 123.894 659.849 121.939 652.835 121.939C645.648 121.939 639.669 123.894 634.897 127.803C630.182 131.713 626.646 136.974 624.289 143.585C621.989 150.14 620.839 157.47 620.839 165.577C620.839 173.626 621.989 180.928 624.289 187.483C626.646 194.037 630.182 199.269 634.897 203.179C639.669 207.031 645.648 208.957 652.835 208.957Z" fill="#151515"/>
<path d="M795.559 233.967C782.335 233.967 770.98 231.064 761.493 225.257C752.064 219.45 744.791 211.429 739.674 201.195C734.615 190.904 732.085 179.06 732.085 165.663C732.085 152.21 734.672 140.337 739.847 130.045C745.021 119.696 752.323 111.647 761.752 105.898C771.239 100.091 782.45 97.1873 795.386 97.1873C806.138 97.1873 815.653 99.1709 823.932 103.138C832.269 107.048 838.91 112.596 843.854 119.783C848.799 126.912 851.616 135.249 852.306 144.793H822.466C821.259 138.411 818.384 133.093 813.842 128.838C809.358 124.526 803.349 122.37 795.818 122.37C789.436 122.37 783.83 124.095 779.001 127.544C774.171 130.937 770.405 135.824 767.703 142.206C765.058 148.588 763.736 156.234 763.736 165.146C763.736 174.173 765.058 181.934 767.703 188.431C770.348 194.871 774.056 199.844 778.828 203.351C783.658 206.801 789.321 208.526 795.818 208.526C800.417 208.526 804.528 207.663 808.15 205.938C811.83 204.156 814.906 201.598 817.378 198.263C819.85 194.928 821.546 190.875 822.466 186.103H852.306C851.558 195.474 848.799 203.782 844.027 211.027C839.255 218.214 832.758 223.848 824.536 227.93C816.314 231.955 806.655 233.967 795.559 233.967Z" fill="#151515"/>
<path d="M911.203 234.053C902.809 234.053 895.248 232.558 888.521 229.569C881.852 226.522 876.563 222.037 872.653 216.115C868.801 210.193 866.875 202.891 866.875 194.21C866.875 186.735 868.255 180.555 871.014 175.667C873.774 170.78 877.54 166.871 882.312 163.939C887.084 161.006 892.46 158.793 898.439 157.298C904.476 155.746 910.714 154.624 917.154 153.935C924.915 153.13 931.211 152.411 936.04 151.778C940.87 151.089 944.377 150.054 946.562 148.674C948.804 147.236 949.925 145.023 949.925 142.033V141.516C949.925 135.019 947.999 129.988 944.147 126.423C940.295 122.859 934.747 121.076 927.503 121.076C919.856 121.076 913.79 122.744 909.306 126.078C904.879 129.413 901.889 133.351 900.336 137.894L871.187 133.754C873.487 125.705 877.281 118.978 882.571 113.573C887.86 108.111 894.328 104.029 901.975 101.327C909.622 98.5672 918.073 97.1873 927.33 97.1873C933.712 97.1873 940.065 97.9347 946.389 99.4296C952.714 100.924 958.492 103.397 963.724 106.846C968.956 110.239 973.153 114.867 976.315 120.731C979.535 126.596 981.145 133.926 981.145 142.723V231.38H951.133V213.183H950.098C948.201 216.862 945.527 220.312 942.077 223.532C938.685 226.694 934.402 229.253 929.227 231.207C924.11 233.105 918.102 234.053 911.203 234.053ZM919.31 211.113C925.576 211.113 931.01 209.877 935.609 207.405C940.209 204.875 943.745 201.54 946.217 197.4C948.747 193.261 950.012 188.748 950.012 183.86V168.251C949.034 169.056 947.367 169.803 945.01 170.493C942.71 171.183 940.123 171.787 937.248 172.304C934.373 172.822 931.527 173.281 928.71 173.684C925.893 174.086 923.449 174.431 921.379 174.719C916.722 175.351 912.554 176.386 908.874 177.824C905.195 179.261 902.291 181.273 900.164 183.86C898.037 186.39 896.973 189.667 896.973 193.692C896.973 199.442 899.072 203.782 903.269 206.715C907.466 209.647 912.813 211.113 919.31 211.113Z" fill="#151515"/>
<path d="M1038.9 54.7562V231.38H1007.68V54.7562H1038.9Z" fill="#151515"/>
<path d="M1124.79 233.967C1111.51 233.967 1100.04 231.207 1090.38 225.688C1080.78 220.111 1073.39 212.234 1068.22 202.058C1063.04 191.823 1060.45 179.778 1060.45 165.922C1060.45 152.296 1063.04 140.337 1068.22 130.045C1073.45 119.696 1080.75 111.647 1090.12 105.898C1099.49 100.091 1110.5 97.1873 1123.15 97.1873C1131.32 97.1873 1139.02 98.5097 1146.26 101.154C1153.57 103.742 1160.01 107.766 1165.58 113.228C1171.22 118.69 1175.64 125.647 1178.86 134.099C1182.08 142.493 1183.69 152.497 1183.69 164.111V173.684H1075.11V152.641H1153.77C1153.71 146.661 1152.42 141.343 1149.89 136.686C1147.36 131.972 1143.82 128.263 1139.28 125.561C1134.79 122.859 1129.56 121.508 1123.58 121.508C1117.2 121.508 1111.59 123.06 1106.77 126.165C1101.94 129.212 1098.17 133.236 1095.47 138.238C1092.82 143.183 1091.47 148.616 1091.41 154.538V172.908C1091.41 180.612 1092.82 187.224 1095.64 192.743C1098.46 198.205 1102.4 202.403 1107.46 205.335C1112.51 208.209 1118.44 209.647 1125.22 209.647C1129.76 209.647 1133.87 209.014 1137.55 207.75C1141.23 206.427 1144.42 204.501 1147.13 201.971C1149.83 199.442 1151.87 196.308 1153.25 192.571L1182.4 195.848C1180.56 203.552 1177.05 210.279 1171.88 216.029C1166.76 221.721 1160.21 226.148 1152.21 229.31C1144.22 232.415 1135.08 233.967 1124.79 233.967Z" fill="#151515"/>
<path d="M1309.94 133.926L1281.48 137.031C1280.68 134.156 1279.27 131.454 1277.26 128.924C1275.3 126.395 1272.66 124.354 1269.32 122.801C1265.99 121.249 1261.91 120.473 1257.08 120.473C1250.58 120.473 1245.12 121.881 1240.69 124.698C1236.32 127.516 1234.17 131.167 1234.22 135.651C1234.17 139.503 1235.58 142.637 1238.45 145.052C1241.38 147.466 1246.21 149.45 1252.94 151.002L1275.53 155.832C1288.07 158.534 1297.38 162.817 1303.48 168.682C1309.63 174.546 1312.73 182.222 1312.79 191.708C1312.73 200.045 1310.29 207.405 1305.46 213.786C1300.69 220.111 1294.05 225.055 1285.54 228.62C1277.03 232.185 1267.25 233.967 1256.22 233.967C1240 233.967 1226.95 230.575 1217.06 223.791C1207.17 216.949 1201.28 207.433 1199.38 195.244L1229.83 192.312C1231.21 198.292 1234.14 202.805 1238.62 205.852C1243.11 208.899 1248.94 210.423 1256.13 210.423C1263.55 210.423 1269.5 208.899 1273.98 205.852C1278.52 202.805 1280.79 199.039 1280.79 194.554C1280.79 190.76 1279.33 187.626 1276.4 185.154C1273.52 182.682 1269.04 180.785 1262.94 179.462L1240.35 174.719C1227.64 172.074 1218.24 167.618 1212.15 161.351C1206.05 155.027 1203.03 147.035 1203.09 137.376C1203.03 129.212 1205.25 122.14 1209.73 116.161C1214.27 110.124 1220.57 105.467 1228.62 102.189C1236.73 98.8546 1246.07 97.1873 1256.65 97.1873C1272.17 97.1873 1284.39 100.493 1293.3 107.105C1302.27 113.717 1307.82 122.657 1309.94 133.926Z" fill="#151515"/>
<path d="M1353.08 281.055C1348.83 281.055 1344.89 280.71 1341.27 280.02C1337.7 279.388 1334.86 278.64 1332.73 277.778L1339.97 253.458C1344.51 254.78 1348.57 255.413 1352.13 255.355C1355.7 255.298 1358.83 254.176 1361.53 251.992C1364.29 249.864 1366.62 246.3 1368.52 241.298L1371.19 234.14L1323.15 98.9121H1356.27L1386.8 198.953H1388.18L1418.8 98.9121H1452L1398.96 247.421C1396.49 254.435 1393.21 260.443 1389.13 265.445C1385.05 270.505 1380.05 274.357 1374.12 277.002C1368.26 279.704 1361.25 281.055 1353.08 281.055Z" fill="#151515"/>
<defs>
<linearGradient id="paint0_linear_606_178" x1="74.9769" y1="169.938" x2="249.912" y2="39.986" gradientUnits="userSpaceOnUse">
<stop stop-color="#7B43C4" stop-opacity="0"/>
<stop offset="0.122867" stop-color="#7B43C4" stop-opacity="0.0757848"/>
<stop offset="0.17256" stop-color="#7B43C4" stop-opacity="0.1"/>
<stop offset="0.461483" stop-color="#7B43C4" stop-opacity="0.733998"/>
<stop offset="0.572098" stop-color="#7B43C4"/>
<stop offset="0.677524" stop-color="#7B43C4"/>
<stop offset="0.807292" stop-color="#7A43C5"/>
<stop offset="0.99" stop-color="#7242CD"/>
</linearGradient>
<linearGradient id="paint1_linear_606_178" x1="288.717" y1="150.258" x2="113.782" y2="280.21" gradientUnits="userSpaceOnUse">
<stop stop-color="#7B43C4" stop-opacity="0"/>
<stop offset="0.122867" stop-color="#7B43C4" stop-opacity="0.0757848"/>
<stop offset="0.17256" stop-color="#7B43C4" stop-opacity="0.1"/>
<stop offset="0.461483" stop-color="#7B43C4" stop-opacity="0.733998"/>
<stop offset="0.572098" stop-color="#7B43C4"/>
<stop offset="0.677524" stop-color="#7B43C4"/>
<stop offset="0.807292" stop-color="#7A43C5"/>
<stop offset="0.99" stop-color="#7242CD"/>
</linearGradient>
<linearGradient id="paint2_linear_606_178" x1="262.801" y1="154.54" x2="333.568" y2="154.54" gradientUnits="userSpaceOnUse">
<stop stop-color="#7B43C4"/>
<stop offset="0.99" stop-color="#7242CD"/>
</linearGradient>
</defs>
</svg>
